<?xml version="1.0" encoding="UTF-8"?>
<svg version="1.1" xmlns="http://www.w3.org/2000/svg" width="394" height="170">
<path d="M0 0 C0.99966797 0.63228516 0.99966797 0.63228516 2.01953125 1.27734375 C4.04530312 2.26342247 4.04530312 2.26342247 6.21875 1.13671875 C6.9715625 0.65847656 7.724375 0.18023437 8.5 -0.3125 C15.88438805 -4.92774253 23.49771424 -4.62620569 32 -4 C38.59018045 -2.33340812 43.80794572 1.75581394 49 6 C49.4846875 5.52949219 49.969375 5.05898438 50.46875 4.57421875 C58.74019218 -3.10867851 64.96498463 -4.61427969 76.3046875 -4.34375 C85.4050338 -3.49720616 91.15719302 0.1124527 97 7 C95.52202738 10.67056937 93.52384523 12.41085783 90.375 14.75 C89.14910156 15.67039062 89.14910156 15.67039062 87.8984375 16.609375 C87.27195313 17.06828125 86.64546875 17.5271875 86 18 C83.42100406 16.78473752 81.55685128 15.63929755 79.3125 13.8125 C75.39905533 11.67118122 73.35052932 11.66797826 69.05078125 12.390625 C65.14056752 13.55251708 63.65560434 15.81991218 61.75 19.25 C60.37277361 24.29983009 60.48815358 28.40424352 62.0625 33.3125 C64.51079477 36.70852178 66.91276039 38.32533089 71 39 C75.24958768 38.6990174 78.82066883 37.88449838 82.25 35.3125 C84 34 84 34 86.25 33.9375 C90.3792824 35.53290456 93.5829732 38.22737527 97 41 C96.29677309 45.91160048 93.15272156 48.08767877 89.51953125 51.16015625 C82.47476354 56.30447499 74.52454154 56.99174405 66 56 C58.98383328 54.20799205 53.50120982 50.60995236 48 46 C47.45472656 46.47050781 46.90945312 46.94101563 46.34765625 47.42578125 C38.21134765 54.14345143 31.52469018 56.58588304 20.93359375 56.2890625 C14.21646981 55.62718877 8.97988685 53.65860383 4 49 C1.99307401 49.99898325 -0.00902984 51.00467365 -2 52.03515625 C-2.66 52.37417969 -3.32 52.71320313 -4 53.0625 C-4.66 53.40410156 -5.32 53.74570313 -6 54.09765625 C-15.13494381 58.21908598 -25.85620583 56.04793139 -35 53 C-36.040354 53.30534668 -37.08070801 53.61069336 -38.15258789 53.92529297 C-42.46305792 55.1293471 -46.12193999 55.25653432 -50.55859375 55.1953125 C-51.2592395 55.19329834 -51.95988525 55.19128418 -52.6817627 55.18920898 C-55.26707629 55.17884588 -57.85229562 55.15092431 -60.4375 55.125 C-66.233125 55.08375 -72.02875 55.0425 -78 55 C-78 35.86 -78 16.72 -78 -3 C-72.225 -3.04125 -66.45 -3.0825 -60.5 -3.125 C-58.69337891 -3.14320801 -56.88675781 -3.16141602 -55.02539062 -3.18017578 C-53.56901342 -3.18602532 -52.11263291 -3.19111978 -50.65625 -3.1953125 C-49.91987305 -3.20554443 -49.18349609 -3.21577637 -48.42480469 -3.22631836 C-44.63314644 -3.22757388 -41.3442108 -2.92043945 -37.68164062 -1.90185547 C-33.56340193 -0.89305084 -32.20810722 -1.59774526 -28.453125 -3.24609375 C-18.89165081 -6.18457228 -8.81744224 -4.15831183 0 0 Z M-24 11 C-23.67 12.65 -23.34 14.3 -23 16 C-20.73050898 16.67155349 -18.4596039 17.3373963 -16.1875 18 C-14.92292969 18.37125 -13.65835938 18.7425 -12.35546875 19.125 C-9.09412585 20.12616509 -9.09412585 20.12616509 -6 20 C-5.67 18.35 -5.34 16.7 -5 15 C-10.25509411 11.45852353 -17.7667882 7.8833941 -24 11 Z M-61 11 C-61 13.64 -61 16.28 -61 19 C-58.87506859 19.02693575 -56.75004088 19.04636628 -54.625 19.0625 C-52.84996094 19.07990234 -52.84996094 19.07990234 -51.0390625 19.09765625 C-48.08078479 19.21466593 -48.08078479 19.21466593 -46 18 C-46 16.02 -46 14.04 -46 12 C-48.88415883 10.55792059 -51.41721528 10.90605113 -54.625 10.9375 C-56.40777344 10.95103516 -56.40777344 10.95103516 -58.2265625 10.96484375 C-59.59941406 10.98224609 -59.59941406 10.98224609 -61 11 Z M12.6875 16.125 C10.38197316 20.05293462 9.80561198 23.46687144 10 28 C11.52075709 33.15367682 13.2780375 36.33106467 18 39 C23.87086969 40.72870733 28.03985313 40.08953406 33.37109375 37.203125 C35.2961538 35.92380293 35.2961538 35.92380293 37 33 C37.62309658 27.72007634 38.20629083 21.78643213 36.0546875 16.81640625 C33.5997563 13.72072256 30.79765974 11.92625847 27 11 C21.00564227 10.36230237 17.09163153 12.07796022 12.6875 16.125 Z M-61 32 C-61 34.64 -61 37.28 -61 40 C-58.54159395 40.02691685 -56.08348118 40.04679802 -53.625 40.0625 C-52.57699219 40.07506836 -52.57699219 40.07506836 -51.5078125 40.08789062 C-47.62704624 40.1835442 -47.62704624 40.1835442 -44 39 C-44 37.35 -44 35.7 -44 34 C-47.59462331 31.74001405 -50.56595675 31.79131913 -54.75 31.875 C-55.92046875 31.89304688 -57.0909375 31.91109375 -58.296875 31.9296875 C-59.18890625 31.95289063 -60.0809375 31.97609375 -61 32 Z M-27 32 C-26.67 34.31 -26.34 36.62 -26 39 C-21.83998439 40.58476785 -18.45843134 41.39630501 -14 41 C-13.01 40.34 -12.02 39.68 -11 39 C-11.33 38.01 -11.66 37.02 -12 36 C-14.68087457 34.74283475 -14.68087457 34.74283475 -17.875 33.8125 C-18.94492188 33.46832031 -20.01484375 33.12414062 -21.1171875 32.76953125 C-23.98579257 31.87104645 -23.98579257 31.87104645 -27 32 Z " fill="#FDFDFD" transform="translate(131,48)"/>
<path d="M0 0 C8.6934375 -0.0928125 8.6934375 -0.0928125 17.5625 -0.1875 C19.3782251 -0.21481201 21.1939502 -0.24212402 23.06469727 -0.27026367 C24.52359352 -0.27903554 25.98249719 -0.28667782 27.44140625 -0.29296875 C28.18289917 -0.30831665 28.92439209 -0.32366455 29.68835449 -0.33947754 C34.85095938 -0.34204132 38.37602063 0.68934288 43 3 C41.9229468 5.23695664 40.86141543 7.18655616 39.375 9.1875 C36.84454557 14.36342951 37.54886511 19.2255361 38.9375 24.6875 C41.39814393 28.63944327 43.97569836 30.32241152 47.94140625 32.640625 C50 34 50 34 52 37 C52.125 40.1875 52.125 40.1875 52 43 C49.03824877 42.38722388 47.61941217 41.74627478 45 40 C43.01633305 39.86693843 43.01633305 39.86693843 41 41 C37.03082755 44.85969708 37.03082755 44.85969708 36 50 C37.5354878 51.46090788 37.5354878 51.46090788 39.5 52.6875 C40.1496875 53.12449219 40.799375 53.56148437 41.46875 54.01171875 C41.9740625 54.33785156 42.479375 54.66398437 43 55 C38.02410702 58.31726199 33.58817841 58.13722582 27.734375 58.09765625 C27.03070801 58.09664917 26.32704102 58.09564209 25.60205078 58.09460449 C22.98468384 58.08939005 20.36734021 58.07542881 17.75 58.0625 C11.8925 58.041875 6.035 58.02125 0 58 C0 38.86 0 19.72 0 0 Z M17 14 C17 16.64 17 19.28 17 22 C19.12493141 22.02693575 21.24995912 22.04636628 23.375 22.0625 C25.15003906 22.07990234 25.15003906 22.07990234 26.9609375 22.09765625 C29.91921521 22.21466593 29.91921521 22.21466593 32 21 C32 19.02 32 17.04 32 15 C29.11584117 13.55792059 26.58278472 13.90605113 23.375 13.9375 C21.59222656 13.95103516 21.59222656 13.95103516 19.7734375 13.96484375 C18.40058594 13.98224609 18.40058594 13.98224609 17 14 Z M17 35 C17 37.64 17 40.28 17 43 C19.45840605 43.02691685 21.91651882 43.04679802 24.375 43.0625 C25.42300781 43.07506836 25.42300781 43.07506836 26.4921875 43.08789062 C30.37295376 43.1835442 30.37295376 43.1835442 34 42 C34 40.35 34 38.7 34 37 C30.40537669 34.74001405 27.43404325 34.79131913 23.25 34.875 C22.07953125 34.89304688 20.9090625 34.91109375 19.703125 34.9296875 C18.81109375 34.95289063 17.9190625 34.97609375 17 35 Z " fill="#FEFEFE" transform="translate(53,45)"/>
<path d="M0 0 C1.0806211 -0.00128164 1.0806211 -0.00128164 2.18307292 -0.00258917 C4.60912389 -0.00424284 7.03510647 0.00127557 9.46115112 0.00672913 C11.19541421 0.00701105 12.92967741 0.00685317 14.66394043 0.00628662 C19.38269016 0.00599884 24.10141464 0.01189243 28.82015848 0.01886058 C33.74759704 0.02509736 38.67503613 0.02569817 43.60247803 0.02688599 C52.938066 0.02999834 62.27364232 0.03821045 71.60922515 0.04823548 C82.23542811 0.05939957 92.86163162 0.06490781 103.48783898 0.06993091 C125.35118262 0.08039314 147.21451575 0.09799074 169.07785034 0.12025452 C169.07785034 3.75025452 169.07785034 7.38025452 169.07785034 11.12025452 C110.33785034 11.12025452 51.59785034 11.12025452 -8.92214966 11.12025452 C-8.92214966 7.82025452 -8.92214966 4.52025452 -8.92214966 1.12025452 C-5.95889222 -0.3613742 -3.30801946 -0.00235279 0 0 Z " fill="#5D666F" transform="translate(58.922149658203125,111.87974548339844)"/>
<path d="M0 0 C3.6066901 2.25906402 6.42282368 5.12407464 9.1640625 8.35546875 C7.68608988 12.02603812 5.68790773 13.76632658 2.5390625 16.10546875 C1.72179687 16.7190625 0.90453125 17.33265625 0.0625 17.96484375 C-0.56398437 18.42375 -1.19046875 18.88265625 -1.8359375 19.35546875 C-4.41493344 18.14020627 -6.27908622 16.9947663 -8.5234375 15.16796875 C-12.43688217 13.02664997 -14.48540818 13.02344701 -18.78515625 13.74609375 C-22.69536998 14.90798583 -24.18033316 17.17538093 -26.0859375 20.60546875 C-27.46316389 25.65529884 -27.34778392 29.75971227 -25.7734375 34.66796875 C-23.32514273 38.06399053 -20.92317711 39.68079964 -16.8359375 40.35546875 C-12.58634982 40.05448615 -9.01526867 39.23996713 -5.5859375 36.66796875 C-3.8359375 35.35546875 -3.8359375 35.35546875 -1.5859375 35.29296875 C2.5433449 36.88837331 5.7470357 39.58284402 9.1640625 42.35546875 C8.46083559 47.26706923 5.31678406 49.44314752 1.68359375 52.515625 C-5.36697233 57.6641779 -13.30580436 58.33671282 -21.8359375 57.35546875 C-28.9860739 55.62210235 -35.14668308 52.07354343 -39.8359375 46.35546875 C-44.24481663 38.17667847 -46.52357976 28.66008051 -44.08203125 19.5390625 C-40.98919188 10.62440786 -37.08126982 4.22637681 -28.8359375 -0.64453125 C-19.82688698 -4.33347394 -8.83758184 -4.09366249 0 0 Z " fill="#9F9F9F" transform="translate(218.8359375,46.64453125)"/>
<path d="M0 0 C2.30078125 2.140625 2.30078125 2.140625 4 4 C3.59007812 4.45890625 3.18015625 4.9178125 2.7578125 5.390625 C2.21898437 6.00421875 1.68015625 6.6178125 1.125 7.25 C0.59132812 7.85328125 0.05765625 8.4565625 -0.4921875 9.078125 C-1.9797487 10.97418746 -3.00322436 12.81290005 -4 15 C-10 13 -10 13 -12.875 11.875 C-16.75986586 10.78723756 -19.9758487 10.86123616 -24 11 C-23.79505697 12.97111787 -23.79505697 12.97111787 -23 15 C-21.30859733 16.00814174 -21.30859733 16.00814174 -19.18359375 16.484375 C-18.03793945 16.80341797 -18.03793945 16.80341797 -16.86914062 17.12890625 C-16.06669922 17.33386719 -15.26425781 17.53882812 -14.4375 17.75 C-13.63119141 17.97042969 -12.82488281 18.19085938 -11.99414062 18.41796875 C-10.00021673 18.9606936 -8.00058083 19.48235236 -6 20 C-5.97421875 20.9178125 -5.9484375 21.835625 -5.921875 22.78125 C-5.58303921 30.11242436 -5.09498522 35.83611981 -1 42 C-0.61972656 42.598125 -0.23945313 43.19625 0.15234375 43.8125 C1.07274826 45.2274991 2.03199167 46.61713095 3 48 C-3.09701585 53.78434837 -9.06375014 56.12371679 -17.5 56.3125 C-27.93971881 55.93551015 -34.40581387 53.00789834 -43 47 C-42.40716379 43.60807637 -41.23256811 41.7892243 -38.9375 39.25 C-38.11572266 38.32960938 -38.11572266 38.32960938 -37.27734375 37.390625 C-36.85582031 36.93171875 -36.43429688 36.4728125 -36 36 C-33.03824877 36.61277612 -31.61941217 37.25372522 -29 39 C-26.45007274 39.32691375 -23.99642829 39.55434858 -21.4375 39.6875 C-20.40979492 39.75807617 -20.40979492 39.75807617 -19.36132812 39.83007812 C-15.55968122 40.13191347 -15.55968122 40.13191347 -12 39 C-12 38.34 -12 37.68 -12 37 C-13.12277344 36.63648438 -14.24554688 36.27296875 -15.40234375 35.8984375 C-35.33614322 29.27831544 -35.33614322 29.27831544 -40.0625 21.6875 C-41.51092435 15.99036423 -42.3275725 11.77181045 -39.7109375 6.30859375 C-36.76880718 1.69388249 -33.92452292 -2.20071129 -28.48828125 -3.66796875 C-18.64019081 -4.98207815 -8.86784156 -4.94523351 0 0 Z " fill="#A0A0A0" transform="translate(131,48)"/>
<path d="M0 0 C4.24112646 0.29249148 7.90451104 1.40303544 11.94140625 2.69140625 C14.88717857 3.30457283 16.73955886 2.99478908 19.625 2.25 C23.95833333 2.25 28.29166667 2.25 32.625 2.25 C32.955 1.59 33.285 0.93 33.625 0.25 C34.285 0.25 34.945 0.25 35.625 0.25 C35.625 0.91 35.625 1.57 35.625 2.25 C36.285 2.25 36.945 2.25 37.625 2.25 C37.625 1.59 37.625 0.93 37.625 0.25 C38.615 0.25 39.605 0.25 40.625 0.25 C40.295 3.55 39.965 6.85 39.625 10.25 C29.29166667 10.25 18.95833333 10.25 8.625 10.25 C8.625 10.91 8.625 11.57 8.625 12.25 C7.635 11.92 6.645 11.59 5.625 11.25 C5.625 10.59 5.625 9.93 5.625 9.25 C4.635 9.745 4.635 9.745 3.625 10.25 C0.5625 10.375 0.5625 10.375 -2.375 10.25 C-3.375 9.25 -3.375 9.25 -3.5078125 7.4375 C-3.50523437 6.715625 -3.50265625 5.99375 -3.5 5.25 C-3.50257813 4.528125 -3.50515625 3.80625 -3.5078125 3.0625 C-3.30264124 0.26251577 -2.79494266 0.29420449 0 0 Z M0.625 2.25 C-0.035 3.57 -0.695 4.89 -1.375 6.25 C0.11 7.24 0.11 7.24 1.625 8.25 C2.285 7.92 2.945 7.59 3.625 7.25 C3.625 5.93 3.625 4.61 3.625 3.25 C2.635 2.92 1.645 2.59 0.625 2.25 Z M8.625 5.25 C8.955 6.24 9.285 7.23 9.625 8.25 C10.285 7.26 10.945 6.27 11.625 5.25 C10.635 5.25 9.645 5.25 8.625 5.25 Z M35.625 5.25 C35.955 6.24 36.285 7.23 36.625 8.25 C36.955 7.26 37.285 6.27 37.625 5.25 C36.965 5.25 36.305 5.25 35.625 5.25 Z " fill="#FDFDFD" transform="translate(275.375,72.75)"/>
<path d="M0 0 C3.125 0.1875 3.125 0.1875 6.125 2.1875 C8.68782742 2.91715366 8.68782742 2.91715366 11.125 3.1875 C11.455 2.8575 11.785 2.5275 12.125 2.1875 C13.79111905 2.144779 15.45882885 2.14686168 17.125 2.1875 C17.785 2.1875 18.445 2.1875 19.125 2.1875 C19.455 1.5275 19.785 0.8675 20.125 0.1875 C20.785 0.1875 21.445 0.1875 22.125 0.1875 C22.125 0.8475 22.125 1.5075 22.125 2.1875 C23.28128906 2.17009766 23.28128906 2.17009766 24.4609375 2.15234375 C25.46382813 2.14332031 26.46671875 2.13429688 27.5 2.125 C28.49773437 2.11339844 29.49546875 2.10179688 30.5234375 2.08984375 C33.125 2.1875 33.125 2.1875 35.125 3.1875 C35.125 5.4975 35.125 7.8075 35.125 10.1875 C28.79166667 10.1875 22.45833333 10.1875 16.125 10.1875 C16.125 8.5375 16.125 6.8875 16.125 5.1875 C15.465 5.1875 14.805 5.1875 14.125 5.1875 C14.125 6.8375 14.125 8.4875 14.125 10.1875 C11.31243719 10.21434312 8.50012759 10.23426188 5.6875 10.25 C4.88505859 10.25837891 4.08261719 10.26675781 3.25585938 10.27539062 C1.21204779 10.2840143 -0.83183902 10.2397815 -2.875 10.1875 C-3.875 9.1875 -3.875 9.1875 -4.0078125 7.375 C-4.00523437 6.653125 -4.00265625 5.93125 -4 5.1875 C-4.00257813 4.465625 -4.00515625 3.74375 -4.0078125 3 C-3.78340894 -0.06244858 -3.10568805 0.20254487 0 0 Z M0.125 2.1875 C-0.535 2.8475 -1.195 3.5075 -1.875 4.1875 C-1.5564823 6.29570797 -1.5564823 6.29570797 -0.875 8.1875 C1.105 7.8575 3.085 7.5275 5.125 7.1875 C4.795 5.8675 4.465 4.5475 4.125 3.1875 C2.23320797 2.5060177 2.23320797 2.5060177 0.125 2.1875 Z M22.125 5.1875 C22.125 6.1775 22.125 7.1675 22.125 8.1875 C22.785 8.1875 23.445 8.1875 24.125 8.1875 C24.125 7.1975 24.125 6.2075 24.125 5.1875 C23.465 5.1875 22.805 5.1875 22.125 5.1875 Z " fill="#FDFDFD" transform="translate(275.875,86.8125)"/>
<path d="M0 0 C1.56047445 0.00015913 3.12095416 0.00585397 4.68139648 0.01586914 C5.91115456 0.01799156 5.91115456 0.01799156 7.16575623 0.02015686 C9.79470406 0.0257725 12.42356797 0.0383276 15.05249023 0.05102539 C16.8304838 0.05603838 18.60847869 0.06060163 20.38647461 0.06469727 C24.75434569 0.07574701 29.12215371 0.09302208 33.48999023 0.11352539 C33.48999023 2.42352539 33.48999023 4.73352539 33.48999023 7.11352539 C31.97405273 7.08258789 31.97405273 7.08258789 30.42749023 7.05102539 C26.54726304 7.01875667 26.54726304 7.01875667 22.98999023 7.67602539 C19.48999023 8.11352539 19.48999023 8.11352539 16.29467773 7.64086914 C12.17438812 7.06978177 8.2618732 7.03715554 4.11499023 7.11352539 C1.56690221 7.15894585 -0.96058747 7.16106707 -3.51000977 7.11352539 C-4.51000977 6.11352539 -4.51000977 6.11352539 -4.63500977 3.61352539 C-4.43940802 -0.29850952 -4.06107262 0.1313486 0 0 Z M-1.51000977 2.11352539 C-1.18000977 3.10352539 -0.85000977 4.09352539 -0.51000977 5.11352539 C0.14999023 4.45352539 0.80999023 3.79352539 1.48999023 3.11352539 C0.49999023 2.78352539 -0.49000977 2.45352539 -1.51000977 2.11352539 Z M4.48999023 2.11352539 C4.81999023 3.10352539 5.14999023 4.09352539 5.48999023 5.11352539 C6.14999023 4.45352539 6.80999023 3.79352539 7.48999023 3.11352539 C6.49999023 2.78352539 5.50999023 2.45352539 4.48999023 2.11352539 Z M23.48999023 2.11352539 C23.48999023 3.10352539 23.48999023 4.09352539 23.48999023 5.11352539 C24.14999023 4.45352539 24.80999023 3.79352539 25.48999023 3.11352539 C24.82999023 2.78352539 24.16999023 2.45352539 23.48999023 2.11352539 Z " fill="#FCFCFC" transform="translate(122.510009765625,133.886474609375)"/>
<path d="M0 0 C2.64 0 5.28 0 8 0 C8.33 0.66 8.66 1.32 9 2 C9.66 2 10.32 2 11 2 C11 3.32 11 4.64 11 6 C11.33 4.68 11.66 3.36 12 2 C14.64 2 17.28 2 20 2 C20.33 1.34 20.66 0.68 21 0 C21.99 0 22.98 0 24 0 C24 3.3 24 6.6 24 10 C16 10 8 10 0 10 C0 6.7 0 3.4 0 0 Z M2 2 C2 2.66 2 3.32 2 4 C2.99 3.67 3.98 3.34 5 3 C4.01 2.67 3.02 2.34 2 2 Z M2 6 C2 6.66 2 7.32 2 8 C2.99 8 3.98 8 5 8 C5 7.34 5 6.68 5 6 C4.01 6 3.02 6 2 6 Z " fill="#FDFDFD" transform="translate(272,44)"/>
<path d="M0 0 C8 0 8 0 10.875 0.5625 C14.02208294 1.00309161 15.94068507 0.68834586 19 0 C20.9996441 -0.03772913 23.00054061 -0.04649906 25 0 C26.08174162 3.36541838 25.92538169 4.29847322 25 8 C18.07 8 11.14 8 4 8 C4 6.35 4 4.7 4 3 C3.34 3 2.68 3 2 3 C2 4.65 2 6.3 2 8 C1.34 8 0.68 8 0 8 C0 5.36 0 2.72 0 0 Z " fill="#FDFDFD" transform="translate(297,46)"/>
<path d="M0 0 C6.93 0 13.86 0 21 0 C21 2.97 21 5.94 21 9 C14.07 9 7.14 9 0 9 C0 6.03 0 3.06 0 0 Z M3 2 C4.32 2.33 5.64 2.66 7 3 C7 3.99 7 4.98 7 6 C7.99 5.67 8.98 5.34 10 5 C9.34 5 8.68 5 8 5 C8 4.01 8 3.02 8 2 C6.35 2 4.7 2 3 2 Z M14 2 C13.67 2.66 13.34 3.32 13 4 C13.66 4 14.32 4 15 4 C14.67 3.34 14.34 2.68 14 2 Z M3 6 C7 7 7 7 7 7 Z " fill="#FDFDFD" transform="translate(68,132)"/>
<path d="M0 0 C0.66 0 1.32 0 2 0 C2.66 1.98 3.32 3.96 4 6 C4.33 6 4.66 6 5 6 C5.33 4.02 5.66 2.04 6 0 C9.3 0 12.6 0 16 0 C16 1.98 16 3.96 16 6 C16.99 4.02 17.98 2.04 19 0 C20.875 0.1875 20.875 0.1875 23 1 C24.52164099 3.89111788 25 5.71823412 25 9 C23.02 8.34 21.04 7.68 19 7 C19 7.66 19 8.32 19 9 C16.625 9.125 16.625 9.125 14 9 C13.34 8.34 12.68 7.68 12 7 C11.67 7.66 11.34 8.32 11 9 C9.35425434 9.02688151 7.70838587 9.04634123 6.0625 9.0625 C5.14597656 9.07410156 4.22945313 9.08570313 3.28515625 9.09765625 C1 9 1 9 0 8 C-0.14115161 5.32941149 -0.04247107 2.67567762 0 0 Z M11 2 C11 2.66 11 3.32 11 4 C11.99 3.67 12.98 3.34 14 3 C13.01 2.67 12.02 2.34 11 2 Z " fill="#FDFDFD" transform="translate(90,132)"/>
<path d="M0 0 C0.33 -0.33 0.66 -0.66 1 -1 C2.99954746 -1.04254356 5.00041636 -1.04080783 7 -1 C7.66 -1 8.32 -1 9 -1 C11.00212229 -0.67966043 13.00239695 -0.34740923 15 0 C15 2.62113708 14.68707555 4.50935112 14 7 C11.36 7 8.72 7 6 7 C5.67 5.68 5.34 4.36 5 3 C4.67 4.32 4.34 5.64 4 7 C2.35425434 7.02688151 0.70838587 7.04634123 -0.9375 7.0625 C-1.85402344 7.07410156 -2.77054687 7.08570312 -3.71484375 7.09765625 C-6 7 -6 7 -7 6 C-7.04080783 4.00041636 -7.04254356 1.99954746 -7 0 C-4.3351451 -1.33242745 -2.85216588 -0.58505967 0 0 Z M-4 2 C-4 2.99 -4 3.98 -4 5 C-3.34 5 -2.68 5 -2 5 C-2 4.01 -2 3.02 -2 2 C-2.66 2 -3.32 2 -4 2 Z " fill="#FCFCFC" transform="translate(323,76)"/>
<path d="M0 0 C0.33 0 0.66 0 1 0 C1 3.63 1 7.26 1 11 C-4.66666667 11 -10.33333333 11 -16 11 C-16.33 10.01 -16.66 9.02 -17 8 C-15.68 8 -14.36 8 -13 8 C-13.99 7.67 -14.98 7.34 -16 7 C-16 5.02 -16 3.04 -16 1 C-14.02 1 -12.04 1 -10 1 C-9.67 2.32 -9.34 3.64 -9 5 C-8.34 4.34 -7.68 3.68 -7 3 C-4.375 3.375 -4.375 3.375 -2 4 C-1.34 2.68 -0.68 1.36 0 0 Z M-6 6 C-6 6.99 -6 7.98 -6 9 C-5.34 9 -4.68 9 -4 9 C-4 8.01 -4 7.02 -4 6 C-4.66 6 -5.32 6 -6 6 Z " fill="#FDFDFD" transform="translate(288,57)"/>
<path d="M0 0 C0.66 0 1.32 0 2 0 C2 20.46 2 40.92 2 62 C1.34 62 0.68 62 0 62 C0 41.54 0 21.08 0 0 Z " fill="#FDFDFD" transform="translate(251,40)"/>
<path d="M0 0 C1.66666667 0.33333333 3.33333333 0.66666667 5 1 C5.33 0.67 5.66 0.34 6 0 C9 -0.125 9 -0.125 12 0 C13 1 13 1 13.0625 4.5625 C13.041875 5.696875 13.02125 6.83125 13 8 C12.34 8 11.68 8 11 8 C10.67 6.68 10.34 5.36 10 4 C9.67 5.32 9.34 6.64 9 8 C7.52093108 8.02689216 6.04172517 8.04634621 4.5625 8.0625 C3.32693359 8.07990234 3.32693359 8.07990234 2.06640625 8.09765625 C0 8 0 8 -1 7 C-1.125 4 -1.125 4 -1 1 C-0.67 0.67 -0.34 0.34 0 0 Z M1 3 C1.33 3.99 1.66 4.98 2 6 C2.66 5.67 3.32 5.34 4 5 C4 4.34 4 3.68 4 3 C3.01 3 2.02 3 1 3 Z " fill="#FDFDFD" transform="translate(307,60)"/>
<path d="M0 0 C1.32 0.66 2.64 1.32 4 2 C4 4.64 4 7.28 4 10 C2.18757948 10.02687279 0.37504767 10.04633715 -1.4375 10.0625 C-2.44683594 10.07410156 -3.45617187 10.08570312 -4.49609375 10.09765625 C-7 10 -7 10 -8 9 C-8.04092937 6.66702567 -8.04241723 4.33294775 -8 2 C-7.01 2 -6.02 2 -5 2 C-4.67 3.65 -4.34 5.3 -4 7 C-3.67 5.35 -3.34 3.7 -3 2 C-2.01 2 -1.02 2 0 2 C0 1.34 0 0.68 0 0 Z " fill="#FDFDFD" transform="translate(298,58)"/>
<path d="M0 0 C3.96 0 7.92 0 12 0 C12 2.31 12 4.62 12 7 C11.34 7 10.68 7 10 7 C9.67 5.68 9.34 4.36 9 3 C8.67 4.32 8.34 5.64 8 7 C5.36 7 2.72 7 0 7 C0 4.69 0 2.38 0 0 Z " fill="#FDFDFD" transform="translate(52,134)"/>
<path d="M0 0 C4.33333333 0 8.66666667 0 13 0 C12.34 2.64 11.68 5.28 11 8 C7 9 7 9 4.75 7.75 C4.1725 7.1725 3.595 6.595 3 6 C3 5.01 3 4.02 3 3 C2.67 4.32 2.34 5.64 2 7 C1.34 7 0.68 7 0 7 C0 4.69 0 2.38 0 0 Z M6 3 C6 4.32 6 5.64 6 7 C6.66 7 7.32 7 8 7 C7.34 5.68 6.68 4.36 6 3 Z " fill="#FCFCFC" transform="translate(157,134)"/>
<path d="M0 0 C1.67542976 0.28604898 3.34385343 0.61781233 5 1 C5.04254356 2.99954746 5.04080783 5.00041636 5 7 C4 8 4 8 1.4375 8.0625 C0.633125 8.041875 -0.17125 8.02125 -1 8 C-1.04241723 5.66705225 -1.04092937 3.33297433 -1 1 C-0.67 0.67 -0.34 0.34 0 0 Z " fill="#FBFBFB" transform="translate(322,60)"/>
<path d="M0 0 C0.99 0.33 1.98 0.66 3 1 C2.67 1.66 2.34 2.32 2 3 C1.95977609 5.3329866 1.95679753 7.66706666 2 10 C1.34 10 0.68 10 0 10 C0 6.7 0 3.4 0 0 Z " fill="#FEFEFE" transform="translate(303,58)"/>
</svg>
